<svg width="29" height="29" viewBox="0 0 29 29" fill="none" xmlns="http://www.w3.org/2000/svg">
<path d="M0 10.2C0 6.70001 -3.03984e-06 4.9 0.699997 3.5C1.3 2.3 2.3 1.30001 3.5 0.700012C4.9 1.2219e-05 6.6 0 10.2 0H17.9C21.4 0 23.2 1.2219e-05 24.6 0.700012C25.8 1.30001 26.8 2.3 27.4 3.5C28.1 4.9 28.1 6.60001 28.1 10.2V17.9C28.1 21.4 28.1 23.2 27.4 24.6C26.8 25.8 25.8 26.8 24.6 27.4C23.2 28.1 21.5 28.1 17.9 28.1H10.2C6.7 28.1 4.9 28.1 3.5 27.4C2.3 26.8 1.3 25.8 0.699997 24.6C-3.03984e-06 23.2 0 21.5 0 17.9V10.2Z" fill="#B30B00"/>
<path d="M22 16C20.7 14.6 17.1 15.2 16.3 15.3C15.1 14 14.2 12.6 13.9 12.1C14.3 10.8 14.7 9.20002 14.7 7.80002C14.7 6.50002 14.2 5.10001 12.8 5.10001C12.3 5.10001 11.8 5.40002 11.6 5.80002C11 6.90002 11.3 9.00001 12.2 11.2C11.7 12.8 10.8 15.2 9.79999 17.1C8.39999 17.6 5.39999 19.1 5.09999 20.7C4.99999 21.1 5.19999 21.7 5.49999 22C5.79999 22.4 6.29999 22.4 6.69999 22.4C8.49999 22.4 10.4 19.8 11.7 17.5C12.7 17.1 14.4 16.6 16 16.3C17.9 18.1 19.6 18.3 20.5 18.3C21.7 18.3 22.2 17.8 22.3 17.3C22.6 17 22.4 16.4 22 16ZM20.8 16.9C20.7 17.3 20.3 17.6 19.5 17.4C18.5 17.1 17.7 16.7 17 16.1C17.6 16 19.1 15.8 20.1 16C20.5 16.1 20.9 16.4 20.8 16.9ZM12.4 6.20001C12.5 6.00001 12.7 5.89999 12.8 5.89999C13.2 5.89999 13.3 6.39999 13.3 6.89999C13.2 7.99999 13 9.10001 12.7 10.1C12 8.10001 12.1 6.70001 12.4 6.20001ZM12.3 16.3C12.7 15.5 13.3 14 13.4 13.4C13.8 14.2 14.6 15.1 15 15.5C15.1 15.5 13.5 15.8 12.3 16.3ZM9.29999 18.3C8.09999 20.3 6.99999 21.5 6.29999 21.5C6.19999 21.5 5.99999 21.5 5.99999 21.4C5.89999 21.2 5.79999 21 5.89999 20.9C5.99999 20.2 7.39999 19.2 9.29999 18.3Z" fill="white"/>
</svg>
