<svg width="29" height="29" viewBox="0 0 29 29" fill="none" xmlns="http://www.w3.org/2000/svg">
<path d="M0 10.2C0 6.7 1.2219e-05 4.9 0.700012 3.5C1.30001 2.3 2.3 1.3 3.5 0.699997C4.9 -3.03984e-06 6.60001 0 10.2 0H17.9C21.4 0 23.2 -3.03984e-06 24.6 0.699997C25.8 1.3 26.8 2.3 27.4 3.5C28.1 4.9 28.1 6.6 28.1 10.2V17.9C28.1 21.4 28.1 23.2 27.4 24.6C26.8 25.8 25.8 26.8 24.6 27.4C23.2 28.1 21.5 28.1 17.9 28.1H10.2C6.70001 28.1 4.9 28.1 3.5 27.4C2.3 26.8 1.30001 25.8 0.700012 24.6C1.2219e-05 23.2 0 21.5 0 17.9V10.2Z" fill="#00005B"/>
<path d="M11.8 17.7H7.50001L6.60001 20.5C6.60001 20.6 6.5 20.7 6.4 20.7H4.20002C4.10002 20.7 4.00001 20.6 4.10001 20.5L7.9 9.40001C7.9 9.30001 8.00001 9.20001 8.00001 9.00001C8.10001 8.70001 8.10001 8.5 8.10001 8.2C8.10001 8.1 8.20002 8.10001 8.20002 8.10001H11.2C11.3 8.10001 11.3 8.1 11.4 8.2L15.7 20.5C15.7 20.6 15.7 20.7 15.6 20.7H13.2C13.1 20.7 13 20.7 13 20.6L11.8 17.7ZM8.10001 15.3H11.1C10.6 13.6 10.1 12 9.60001 10.3C9.10001 12 8.60001 13.7 8.10001 15.3Z" fill="#9999FF"/>
<path d="M18.7001 16.6C18.9001 18 20.1001 18.7 21.4001 18.7C22.2001 18.7 23.0001 18.6 23.7001 18.3C23.8001 18.2 23.8001 18.3 23.8001 18.4V20.2C23.8001 20.3 23.8001 20.4 23.7001 20.4C22.8001 20.8 21.8001 20.9 20.9001 20.9C18.1001 20.9 16.1001 18.9 16.1001 16C16.1001 13.3 17.9001 11 20.6001 11C22.9001 10.9 24.6001 12.8 24.6001 15.1C24.6001 15.5 24.6001 16 24.5001 16.4C24.5001 16.5 24.4001 16.6 24.3001 16.6C22.4001 16.5 20.5001 16.6 18.7001 16.6ZM18.7001 14.8C19.7001 14.8 20.8001 14.8 21.8001 14.8C22.0001 14.8 22.1001 14.8 22.1001 14.6C22.1001 13.7 21.3001 13 20.5001 13.1C19.4001 13 18.8001 13.9 18.7001 14.8Z" fill="#9999FF"/>
</svg>
