<svg width="28" height="28" viewBox="0 0 28 28" fill="none" xmlns="http://www.w3.org/2000/svg">
<path d="M14 28C21.732 28 28 21.732 28 14C28 6.26801 21.732 0 14 0C6.26801 0 0 6.26801 0 14C0 21.732 6.26801 28 14 28Z" fill="#105DFB"/>
<path fill-rule="evenodd" clip-rule="evenodd" d="M4.8999 20V7.79999H10.4999C12.2999 7.79999 13.7999 9.30001 13.7999 11.1C13.7999 12.3 13.3999 13 12.0999 13.7C13.6999 14.4 14.0999 15.4 14.0999 16.8C14.0999 18.7 12.4999 20.1 10.5999 20.1H4.8999V20ZM7.2999 9.79999V12.7H10.0999C10.0999 12.7 11.4999 12.7 11.4999 11.2C11.4999 9.70001 10.0999 9.70001 10.0999 9.70001H7.2999V9.79999ZM7.2999 17.9V14.7H10.2999C10.7999 14.7 11.7999 14.9 11.7999 16.5C11.7999 17.6 10.7999 17.9 10.2999 17.9H7.2999Z" fill="white"/>
<path fill-rule="evenodd" clip-rule="evenodd" d="M19.1999 11.1C17.4999 11.1 14.8999 12.3 14.8999 15.6C14.8999 17.6 15.9999 20.2 19.2999 20.2C21.8999 20.2 23.0999 18.3 23.3999 17.3H20.9999C20.8999 17.7 20.3999 18.2 19.3999 18.2C17.8999 18.2 17.3999 16.9 17.2999 16.3H23.4999V15.6C23.4999 12.3 20.9999 11.1 19.1999 11.1ZM19.1999 13C17.7999 13 17.2999 14.2 17.1999 14.7H20.9999C20.9999 14.1 20.5999 13 19.1999 13Z" fill="white"/>
<path d="M16.3 8.39999V9.89999H22.2001V8.39999H16.3Z" fill="white"/>
</svg>
