<svg width="28" height="28" viewBox="0 0 28 28" fill="none" xmlns="http://www.w3.org/2000/svg">
<path d="M13.8891 0.00309155C13.8891 0.00309155 22.1891 -0.396915 26.4891 7.90309H13.1891C13.1891 7.90309 10.6891 7.80309 8.48907 10.9031C7.88907 12.2031 7.18907 13.5031 7.98907 16.1031C6.88907 14.3031 2.28906 6.30308 2.28906 6.30308C2.28906 6.30308 5.58907 0.303092 13.8891 0.00309155Z" fill="#EF3F36"/>
<path d="M26.0892 21.0031C26.0892 21.0031 22.2892 28.3031 12.8892 27.9031C14.0892 25.9031 19.5892 16.4031 19.5892 16.4031C19.5892 16.4031 20.8892 14.3031 19.3892 10.9031C18.5892 9.70308 17.7891 8.50307 15.1891 7.80307C17.2891 7.80307 26.5892 7.80307 26.5892 7.80307C26.5892 7.80307 29.9892 13.6031 26.0892 21.0031Z" fill="#FCD900"/>
<path d="M1.7892 21.0031C1.7892 21.0031 -2.61079 14.1031 2.38921 6.20309C3.58921 8.20309 9.08922 17.7031 9.08922 17.7031C9.08922 17.7031 10.2892 19.9031 13.9892 20.2031C15.3892 20.1031 16.8892 20.0031 18.7892 18.1031C17.7892 19.9031 13.0892 27.9031 13.0892 27.9031C13.0892 27.9031 6.1892 28.1031 1.7892 21.0031Z" fill="#61BC5B"/>
<path d="M12.8892 28.0031L14.7892 20.2031C14.7892 20.2031 16.8892 20.0031 18.5892 18.2031C17.4892 20.0031 12.8892 28.0031 12.8892 28.0031Z" fill="#5AB055"/>
<path d="M7.58911 14.1031C7.58911 10.7031 10.3891 7.90308 13.7891 7.90308C17.1891 7.90308 19.9891 10.7031 19.9891 14.1031C19.9891 17.5031 17.1891 20.3031 13.7891 20.3031C10.3891 20.3031 7.58911 17.5031 7.58911 14.1031Z" fill="white"/>
<path d="M8.68921 14.1031C8.68921 11.2031 10.9892 8.90308 13.8892 8.90308C16.7892 8.90308 19.0892 11.2031 19.0892 14.1031C19.0892 17.0031 16.7892 19.3031 13.8892 19.3031C10.9892 19.3031 8.68921 16.9031 8.68921 14.1031Z" fill="url(#paint0_linear_2_88)"/>
<path d="M26.4891 7.90308L18.7891 10.2031C18.7891 10.2031 17.5891 8.50308 15.0891 7.90308C17.2891 7.90308 26.4891 7.90308 26.4891 7.90308Z" fill="#EACA05"/>
<path d="M7.78906 15.8031C6.68906 13.9031 2.28906 6.30307 2.28906 6.30307L7.98907 11.9031C7.98907 11.9031 7.38908 13.1031 7.58908 14.8031L7.78906 15.8031Z" fill="#DF3A32"/>
<defs>
<linearGradient id="paint0_linear_2_88" x1="13.8552" y1="8.98308" x2="13.8552" y2="18.9621" gradientUnits="userSpaceOnUse">
<stop stop-color="#86BBE5"/>
<stop offset="1" stop-color="#1072BA"/>
</linearGradient>
</defs>
</svg>
