<svg width="29" height="29" viewBox="0 0 29 29" fill="none" xmlns="http://www.w3.org/2000/svg">
<path d="M0 10.2C0 6.7 1.2219e-05 4.9 0.700012 3.5C1.30001 2.3 2.3 1.3 3.5 0.699997C4.9 -3.03984e-06 6.60001 0 10.2 0H17.9C21.4 0 23.2 -3.03984e-06 24.6 0.699997C25.8 1.3 26.8 2.3 27.4 3.5C28.1 4.9 28.1 6.6 28.1 10.2V17.9C28.1 21.4 28.1 23.2 27.4 24.6C26.8 25.8 25.8 26.8 24.6 27.4C23.2 28.1 21.5 28.1 17.9 28.1H10.2C6.70001 28.1 4.9 28.1 3.5 27.4C2.3 26.8 1.30001 25.8 0.700012 24.6C1.2219e-05 23.2 0 21.5 0 17.9V10.2Z" fill="#470137"/>
<path d="M3 20.8V8.3C3 8.2 3.00001 8.1 3.10001 8.1C4.20001 8 5.40001 8 6.60001 8C8.80001 8 11.1 8.8 12.2 11C12.7 11.9 12.9 13 12.9 14.2C12.9 15 12.8 15.9 12.5 16.7C12.3 17.4 11.9 18 11.5 18.6C11.1 19.1 10.6 19.6 10.1 19.9C8.10001 21.2 5.40001 21 3.10001 20.9C3.00001 21 3 20.9 3 20.8ZM5.39999 10.5V18.6C8.09999 18.6 10.4 17.5 10.3 14.4C10.4 11.3 8.09999 10.3 5.39999 10.5Z" fill="#FF61F6"/>
<path d="M23.3002 21H21.1002C21.0002 21 20.9002 20.9 20.9002 20.8C20.5002 18.5 20.0002 16.3 19.6002 14C19.1002 16.3 18.6002 18.5 18.1002 20.8C18.1002 20.9 18.0002 21 17.9002 21H15.7002C15.6002 21 15.5002 20.9 15.5002 20.8L13.2002 11.4C13.2002 11.3 13.2002 11.2 13.3002 11.2H15.5002C15.6002 11.2 15.7002 11.2 15.7002 11.3C16.2002 13.6 16.6002 15.9 17.0002 18.3C17.4002 16 18.0002 13.7 18.4002 11.4C18.4002 11.3 18.4002 11.2 18.6002 11.2H20.9002C21.0002 11.2 21.0002 11.2 21.0002 11.3C21.5002 13.6 21.9002 15.9 22.3002 18.3C22.8002 16 23.1002 13.6 23.7002 11.3C23.7002 11.2 23.8002 11.1 23.9002 11.1H25.9002C26.0002 11.1 26.0002 11.2 26.0002 11.3L23.5002 20.7C23.5002 20.9 23.4002 21 23.3002 21Z" fill="#FF61F6"/>
</svg>
