<svg width="28" height="27" viewBox="0 0 28 27" fill="none" xmlns="http://www.w3.org/2000/svg">
<path fill-rule="evenodd" clip-rule="evenodd" d="M13.8 0C6.19999 0 0 6.2 0 13.8C0 19.9 4 25.1 9.5 26.9C10.2 27 10.5 26.6 10.5 26.2C10.5 25.9 10.5 24.8 10.5 23.6C7 24.2 6.09999 22.8 5.79999 22C5.59999 21.6 4.99999 20.4 4.39999 20C3.89999 19.7 3.19999 19.1 4.39999 19.1C5.49999 19.1 6.3 20.1 6.5 20.5C7.7 22.6 9.7 22 10.5 21.6C10.6 20.7 11 20.1 11.4 19.7C8.29999 19.4 5.10001 18.2 5.10001 12.9C5.10001 11.4 5.6 10.1 6.5 9.2C6.4 8.9 5.90001 7.4 6.60001 5.5C6.60001 5.5 7.79999 5.1 10.4 6.9C11.5 6.6 12.7 6.4 13.9 6.4C15.1 6.4 16.3 6.6 17.4 6.9C20 5.1 21.2 5.5 21.2 5.5C22 7.4 21.5 8.8 21.3 9.2C22.2 10.2 22.7 11.4 22.7 12.9C22.7 18.2 19.5 19.4 16.4 19.7C16.9 20.1 17.3 21 17.3 22.3C17.3 24.2 17.3 25.6 17.3 26.1C17.3 26.5 17.6 26.9 18.3 26.8C23.8 25 27.7 19.8 27.7 13.7C27.7 6.2 21.5 0 13.8 0Z" fill="white"/>
</svg>
