<svg width="29" height="29" viewBox="0 0 29 29" fill="none" xmlns="http://www.w3.org/2000/svg">
<path d="M0 10C0 6.5 1.2219e-05 4.79999 0.700012 3.39999C1.30001 2.19999 2.20002 1.30001 3.40002 0.700012C4.70002 1.2219e-05 6.5 0 10 0H18.1C21.6 0 23.3 1.2219e-05 24.7 0.700012C25.9 1.30001 26.8 2.19999 27.4 3.39999C28.1 4.69999 28.1 6.5 28.1 10V18.1C28.1 21.6 28.1 23.3 27.4 24.7C26.8 25.9 25.9 26.8 24.7 27.4C23.4 28.1 21.6 28.1 18.1 28.1H10C6.5 28.1 4.80002 28.1 3.40002 27.4C2.20002 26.8 1.30001 25.9 0.700012 24.7C1.2219e-05 23.4 0 21.6 0 18.1V10Z" fill="white"/>
<path d="M14 10.5L10.5 4.39999C10.6 4.29999 10.7 4.20001 10.9 4.20001C9.90002 4.50001 9.40002 5.70001 9.40002 5.70001L3.09998 16.9C2.99998 17.3 3 17.6 3 17.8H9.90002L14 10.5Z" fill="#34A853"/>
<path d="M14 10.5L18.1 17.7H25C25 17.4 25 17.1 24.9 16.8L18.6 5.60001C18.6 5.60001 18.1 4.50001 17.1 4.10001C17.2 4.20001 17.4 4.19999 17.5 4.29999L14 10.5Z" fill="#FBBC05"/>
<path d="M14 10.5L17.5 4.39999C17.4 4.29999 17.3 4.20001 17.1 4.20001C16.9 4.20001 16.8 4.10001 16.6 4.10001H16.4H11.6H11.4C11.2 4.10001 11.1 4.10001 10.9 4.20001C10.8 4.30001 10.6 4.29999 10.5 4.39999L14 10.5Z" fill="#188038"/>
<path d="M9.89996 17.7L6.49994 23.7C6.49994 23.7 6.39995 23.6 6.19995 23.5C6.69995 23.9 7.19995 24 7.19995 24H20.5999C21.2999 24 21.4999 23.7 21.4999 23.7L18.0999 17.7H9.89996Z" fill="#4285F4"/>
<path d="M9.90002 17.7H3C3 18.5 3.40002 19 3.40002 19L3.70001 19.5L4.29999 20.5L5.59998 22.7C5.59998 22.8 5.70001 22.9 5.70001 22.9C5.70001 22.9 5.69999 23 5.79999 23C5.99999 23.2 6.09999 23.4 6.29999 23.5C6.49999 23.6 6.59998 23.7 6.59998 23.7L9.90002 17.7Z" fill="#1967D2"/>
<path d="M18.1001 17.7H25.0001C25.0001 18.5 24.6001 19 24.6001 19L24.3001 19.5L23.7001 20.5L22.4001 22.7C22.4001 22.8 22.3001 22.9 22.3001 22.9C22.3001 22.9 22.3001 23 22.2001 23C22.0001 23.2 21.9001 23.4 21.7001 23.5C21.5001 23.6 21.4001 23.7 21.4001 23.7L18.1001 17.7Z" fill="#EA4335"/>
</svg>
