<svg width="29" height="29" viewBox="0 0 29 29" fill="none" xmlns="http://www.w3.org/2000/svg">
<path d="M0 10.2C0 6.7 1.2219e-05 4.9 0.700012 3.5C1.30001 2.3 2.3 1.3 3.5 0.699997C4.9 -3.03984e-06 6.60001 0 10.2 0H17.9C21.4 0 23.2 -3.03984e-06 24.6 0.699997C25.8 1.3 26.8 2.3 27.4 3.5C28.1 4.9 28.1 6.6 28.1 10.2V17.9C28.1 21.4 28.1 23.2 27.4 24.6C26.8 25.8 25.8 26.8 24.6 27.4C23.2 28.1 21.5 28.1 17.9 28.1H10.2C6.70001 28.1 4.9 28.1 3.5 27.4C2.3 26.8 1.30001 25.8 0.700012 24.6C1.2219e-05 23.2 0 21.5 0 17.9V10.2Z" fill="#49021F"/>
<path d="M9.60001 8.3V20.6C9.60001 20.7 9.49999 20.8 9.39999 20.8H7.10001C7.00001 20.8 7 20.7 7 20.6V8.3C7 8.2 7.10001 8.10001 7.20001 8.10001H9.5C9.5 8.10001 9.60001 8.2 9.60001 8.3Z" fill="#FF3366"/>
<path d="M16.2999 21C15.3999 21 14.5999 20.8 13.7999 20.5C12.0999 19.7 11.3999 18 11.3999 16.1C11.3999 14.3 12.2999 12.6 13.8999 11.7C14.9999 11.1 16.1999 10.9 17.4999 11V7.2C17.4999 7.1 17.4999 7.10001 17.5999 7.10001H19.9999C20.0999 7.10001 20.0999 7.1 20.0999 7.2V18.6C20.0999 19.1 20.0999 19.5 20.1999 20C20.1999 20.1 20.1999 20.2 20.0999 20.2C19.4999 20.5 18.8999 20.7 18.1999 20.8C17.4999 20.9 16.8999 20.9 16.2999 21ZM17.4999 18.6V13.3C15.7999 12.8 14.0999 14.1 14.0999 15.9C13.9999 17.8 15.6999 19.1 17.4999 18.6Z" fill="#FF3366"/>
</svg>
