<svg width="25" height="26" viewBox="0 0 25 26" fill="none" xmlns="http://www.w3.org/2000/svg">
<path d="M20.3414 12.1001C20.0414 12.8001 19.5414 13.5001 19.0414 14.0001C17.9414 15.2001 16.5414 16 14.9414 16.3C13.8414 16.5 12.8414 16.6001 11.7414 16.4001C9.04141 16.1001 6.94141 14.7001 5.24141 12.5001C4.04141 11.0001 3.44141 9.20005 3.44141 7.30005C3.44141 5.80005 3.84141 4.50005 4.74141 3.30005C5.04141 3.00005 5.3414 2.60005 5.5414 2.30005C5.0414 3.40005 4.84141 4.60005 4.94141 5.80005C5.04141 7.40005 5.6414 8.90006 6.6414 10.2001C8.0414 12.1001 9.8414 13.4001 12.0414 14.0001C14.0414 14.5001 16.1414 14.5001 18.0414 13.6001C18.9414 13.3001 19.6414 12.8001 20.3414 12.1001C20.2414 12.1001 20.2414 12.1001 20.3414 12.1001Z" fill="#0968AC"/>
<path d="M20.7413 7.70006C20.2413 8.90006 19.4413 9.80005 18.3413 10.4001C17.2413 11.0001 16.1413 11.1001 14.9413 11.1001C12.9413 11.0001 11.3413 10.1001 10.0413 8.60005C8.94131 7.40005 8.44131 5.90006 8.54131 4.20006C8.54131 3.40006 8.84132 2.60005 9.24132 1.90005C9.44132 1.50005 9.74131 1.20005 10.0413 0.800049C10.1413 0.800049 10.0413 0.900055 10.0413 0.900055C9.34131 2.60005 9.54132 4.20005 10.4413 5.80005C11.6413 7.90005 13.4413 9.10005 15.7413 9.40005C17.4413 9.60005 18.9413 9.30005 20.2413 8.10005C20.3413 8.10005 20.5413 7.90006 20.7413 7.70006Z" fill="#0968AC"/>
<path d="M6.34144 23.6999C5.84144 23.6999 5.34144 23.6999 4.84144 23.6999C3.94144 23.5999 3.44144 23.0999 3.34144 22.1999C3.24144 20.9999 3.54144 19.8999 4.54144 19.0999C5.24144 18.4999 6.54144 18.3999 7.34144 18.7999C8.04144 19.1999 8.34145 19.9999 8.24145 20.7999C8.14145 21.3999 7.94145 21.8999 7.74145 22.4999C7.64145 22.6999 7.74145 22.6999 7.94145 22.6999C8.34145 22.6999 8.34145 22.6999 8.24145 23.0999C8.04145 23.7999 8.04145 23.7999 7.44145 23.7999C6.94145 23.6999 6.64144 23.6999 6.34144 23.6999ZM5.84144 22.6999C5.94144 22.6999 6.14145 22.6999 6.24145 22.6999C6.44145 22.6999 6.44144 22.5999 6.54144 22.4999C6.64144 22.0999 6.74145 21.5999 6.94145 21.1999C7.04145 20.8999 7.04144 20.6999 7.04144 20.3999C7.04144 20.0999 6.94145 19.8999 6.64145 19.6999C6.14145 19.3999 5.34144 19.5999 5.04144 20.0999C4.64144 20.5999 4.54145 21.2999 4.64145 21.8999C4.64145 22.2999 4.94144 22.5999 5.34144 22.5999C5.44144 22.6999 5.64144 22.6999 5.84144 22.6999Z" fill="#171E2B"/>
<path d="M15.0415 22.1C14.6415 22.1 14.2415 22.1 13.8415 22.1C13.7415 22.1 13.6415 22.2 13.6415 22.3C13.6415 22.6 13.7415 22.7 14.0415 22.7C14.2415 22.7 14.3415 22.7 14.5415 22.7C15.0415 22.7 15.4415 22.7 15.9415 22.7C16.1415 22.7 16.1415 22.7 16.1415 22.9C16.0415 23.1 16.0415 23.3 16.0415 23.6C16.0415 23.7 15.9415 23.8 15.8415 23.8C15.1415 23.8 14.5415 23.8 13.8415 23.8C13.7415 23.8 13.5415 23.8 13.4415 23.7C12.8415 23.5 12.5415 23.2 12.5415 22.6C12.5415 21.9 12.6415 21.2 13.0415 20.5C13.4415 19.8 14.0415 19.6 14.7415 19.6C14.9415 19.6 15.2415 19.6 15.4415 19.6C16.1415 19.7 16.5415 20.1 16.5415 20.9C16.5415 21.2 16.4415 21.6 16.3415 21.9C16.3415 22 16.2415 22.1 16.1415 22.1C15.8415 22.1 15.4415 22.1 15.0415 22.1ZM14.6415 21.2C14.8415 21.2 15.0415 21.2 15.2415 21.2C15.3415 21.2 15.4415 21.2 15.4415 21.1C15.4415 20.9 15.4415 20.8 15.3415 20.7C14.9415 20.4 14.1415 20.6 14.0415 21.1C13.9415 21.2 14.0415 21.3 14.1415 21.3C14.3415 21.2 14.5415 21.2 14.6415 21.2Z" fill="#171E2B"/>
<path d="M10.6414 23.7C10.3414 23.7 9.94136 23.7 9.64136 23.7C9.04136 23.7 8.74136 23.3 8.64136 22.7C8.64136 22.3 8.64136 21.8999 8.74136 21.5999C8.84136 20.9999 8.94136 20.4999 9.14136 19.8999C9.14136 19.6999 9.24136 19.7 9.44136 19.7C9.64136 19.7 9.94136 19.7 10.1414 19.7C10.2414 19.7 10.3414 19.6999 10.2414 19.8999C10.1414 20.5999 9.94135 21.3 9.84135 22C9.84135 22.2 9.74135 22.3 9.84135 22.5C9.84135 22.7 10.0414 22.7999 10.2414 22.8999C10.4414 22.8999 10.7414 22.8999 10.9414 22.8999C11.1414 22.8999 11.1414 22.8 11.1414 22.7C11.2414 22 11.4414 21.4 11.5414 20.7C11.5414 20.5 11.6414 20.3 11.6414 20C11.6414 19.8 11.7414 19.6999 11.9414 19.7999C12.1414 19.7999 12.3414 19.7999 12.5414 19.7999C12.7414 19.7999 12.7414 19.8 12.7414 20C12.6414 20.7 12.4414 21.3 12.3414 22C12.2414 22.5 12.1414 23.0999 12.0414 23.5999C12.0414 23.7999 11.9414 23.8999 11.7414 23.8999C11.2414 23.6999 10.9414 23.7 10.6414 23.7Z" fill="#171E2B"/>
<path d="M20.1415 4.7C19.9415 5.1 19.7415 5.39999 19.4415 5.59999C18.7415 6.19999 17.9415 6.39999 16.9415 6.39999C15.1415 6.29999 13.8415 5.39999 13.1415 3.79999C12.5415 2.49999 12.7415 1.2 13.7415 0C13.6415 0.3 13.6414 0.499997 13.5414 0.699997C13.3414 1.7 13.6415 2.7 14.2415 3.5C15.1415 4.8 16.5415 5.5 18.1415 5.5C18.6415 5.4 19.3415 5.4 20.1415 4.7Z" fill="#0968AC"/>
<path d="M21.1414 21.6C21.2414 21.6 21.2414 21.5 21.3414 21.4C21.8414 20.7 22.3414 20 22.8414 19.2C22.9414 19.1 23.0414 19 23.1414 19C23.4414 19 23.7414 19 24.1414 19C24.2414 19 24.2414 19 24.3414 19C24.3414 19.1 24.3414 19.1 24.2414 19.2C23.5414 20.2 22.7414 21.2 22.0414 22.2C21.7414 22.6 21.5414 23 21.4414 23.4C21.4414 23.6 21.3414 23.7 21.0414 23.7C20.8414 23.7 20.5414 23.7 20.2414 23.7C20.0414 23.7 20.0414 23.6 20.1414 23.5C20.3414 22.9 20.3414 22.4 20.1414 21.8C20.0414 21.5 20.0414 21.3 19.9414 21C19.9414 20.9 19.9414 20.8 20.0414 20.8C20.3414 20.8 20.6414 20.8 20.9414 20.8C21.0414 20.8 21.1414 20.9 21.1414 21C21.0414 21.2 21.0414 21.4 21.1414 21.6Z" fill="#171E2B"/>
<path d="M18.9414 19.7C19.3414 19.7 19.7414 19.7 20.1414 19.7C20.6414 19.7 20.9414 20.0999 20.9414 20.5999C20.9414 20.6999 20.8414 20.7 20.7414 20.7C20.0414 20.7 19.4414 20.7 18.7414 20.7C18.4414 20.7 18.4414 20.6 18.3414 21C18.1414 21.8 17.9414 22.7 17.8414 23.5C17.8414 23.7 17.7414 23.8 17.5414 23.7C17.3414 23.7 17.1414 23.7 16.9414 23.7C16.6414 23.7 16.6414 23.6999 16.7414 23.3999C16.9414 22.6999 17.0414 21.9 17.2414 21.2C17.3414 20.8 17.4414 20.2999 17.5414 19.8999C17.5414 19.6999 17.6414 19.7 17.8414 19.7C18.1414 19.7 18.5414 19.7 18.9414 19.7Z" fill="#171E2B"/>
<path d="M0.54142 25.4C0.44142 25.4 0.241426 25.4 0.141426 25.4C0.0414262 25.4 -0.0585799 25.4 0.0414201 25.3C0.14142 25.1 0.141432 24.8 0.241432 24.5C0.241432 24.4 0.341429 24.4 0.441429 24.4C0.941429 24.4 1.14143 24.2 1.24143 23.7C1.34143 23.4 1.34143 23 1.44143 22.7C1.54143 22.2 1.64143 21.7 1.74143 21.1C1.74143 21 1.84143 20.9 1.94143 20.9C2.24143 20.9 2.44143 20.9 2.74143 20.9C2.84143 20.9 2.94142 20.9 2.84142 21.1C2.64142 22.2 2.44143 23.3 2.14143 24.3C2.14143 24.4 2.14142 24.4 2.04142 24.5C1.74142 25.2 1.44143 25.4 0.741432 25.4C0.641432 25.4 0.64142 25.4 0.54142 25.4Z" fill="#171E2B"/>
<path d="M2.34131 20.5999C2.24131 20.5999 2.04131 20.5999 1.94131 20.5999C1.84131 20.5999 1.84131 20.6 1.84131 20.5C1.94131 20.3 1.94131 19.9999 2.04131 19.7999C2.04131 19.6999 2.14132 19.7 2.24132 19.7C2.54132 19.7 2.84131 19.7 3.04131 19.7C3.14131 19.7 3.24131 19.7999 3.14131 19.8999C3.04131 20.0999 3.04131 20.2999 3.04131 20.5999C3.04131 20.6999 2.94131 20.7999 2.84131 20.7999C2.64131 20.5999 2.54131 20.5999 2.34131 20.5999Z" fill="#171E2B"/>
<path d="M20.2415 12C20.3415 12.1 20.3415 12 20.2415 12C20.2415 12.1 20.2415 12.1 20.2415 12Z" fill="#0968AC"/>
</svg>
