<svg width="37" height="21" viewBox="0 0 37 21" fill="none" xmlns="http://www.w3.org/2000/svg">
<path d="M0 19.0134H1.5V13.6134L3.5 18.2134C3.8 18.8134 4.09999 19.0134 4.79999 19.0134C5.49999 19.0134 5.80001 18.8134 6.10001 18.2134L8.10001 13.7134V19.0134H9.60001V13.5134C9.60001 13.0134 9.4 12.7134 9 12.6134C8 12.3134 7.29999 12.6134 6.89999 13.3134L4.79999 18.0134L2.79999 13.3134C2.49999 12.6134 1.79998 12.3134 0.699982 12.6134C0.299982 12.7134 0.100006 13.0134 0.100006 13.5134L0 19.0134ZM10.2 14.6134H11.7V17.7134C11.7 17.9134 11.7 18.3134 12.5 18.3134C12.9 18.3134 14.7 18.3134 14.7 18.3134V14.6134H16.2V19.2134C16.2 20.3134 14.8 20.5134 14.2 20.5134H10.4V19.8134H14.1C14.9 19.7134 14.8 19.3134 14.8 19.1134H12.5C11.2 19.1134 10.4 18.5134 10.4 17.9134C10.2 17.7134 10.3 14.6134 10.2 14.6134Z" fill="url(#paint0_linear_15_176)"/>
<path d="M16.8 19.0134H20.5001C21.0001 19.0134 21.4 18.9133 21.8 18.7133C22.4 18.4133 22.7 18.0134 22.7 17.5134V16.5134C22.7 15.4134 21.3001 15.3134 20.5001 15.3134H19.0001C18.4001 15.3134 18.3 15.0134 18.3 14.6134V13.8134C18.4 13.5134 18.5001 13.1134 19.0001 13.1134C19.6001 13.1134 22.7 13.1134 22.7 13.1134V12.4134H19.2C18.6 12.4134 16.8 12.5134 16.8 13.9134V14.8134C16.8 15.4134 17.4001 16.0134 18.6001 16.1134C18.7001 16.1134 18.9001 16.1134 19.0001 16.1134C19.0001 16.1134 20.4001 16.1134 20.5001 16.1134C21.3001 16.1134 21.2 16.7134 21.2 16.8134V17.5134C21.2 17.6134 21.2001 18.2133 20.5001 18.2133C20.4001 18.2133 16.8 18.2133 16.8 18.2133V19.0134ZM30.8 17.5134C30.8 18.4134 31.3001 18.9134 32.6001 19.0134C32.7001 19.0134 32.8001 19.0134 33.0001 19.0134H36.7V18.3134H33.3C32.5 18.3134 32.3 18.0134 32.3 17.5134V12.4134H30.8V17.5134ZM23.4001 17.5134V13.8134C23.4001 13.0134 23.8001 12.5134 24.9001 12.3134H25.4001H28.0001H28.4001C29.5001 12.4134 30.0001 13.0134 30.0001 13.8134V17.5134C30.0001 18.1134 29.8 18.5133 29.3 18.7133L30.4001 19.7133H28.7L27.9001 19.0134H26.9001H25.3C25.1 19.0134 24.8001 19.0134 24.5001 18.9134C23.8001 18.6134 23.4001 18.2134 23.4001 17.5134ZM24.9001 17.5134C25.0001 17.9134 25.3 18.2133 25.8 18.2133H27.2L26.4001 17.5134H28.1001L28.5001 17.9134C28.5001 17.9134 28.6001 17.8134 28.6001 17.5134C28.6001 17.2134 28.6001 13.8134 28.6001 13.8134C28.5001 13.5134 28.2 13.1134 27.7 13.1134H25.8C25.2 13.1134 24.9001 13.5134 24.9001 13.9134V17.5134Z" fill="url(#paint1_linear_15_176)"/>
<path d="M35.1999 10.9133C35.0999 11.0133 34.7 11.0133 34.6 11.0133C34.4 11.0133 34.1999 11.0133 33.8999 11.1133C33.6999 11.1133 32.8999 11.2133 32.8999 11.5133C32.8999 11.6133 32.8999 11.6133 32.9999 11.7133C33.1999 12.0133 33.3 12.3133 33.6 12.5133C33.8 12.7133 33.9999 12.8133 34.1999 12.9133C34.7999 13.3133 35.4999 13.5133 35.9999 14.0133C36.0999 14.1133 36.1999 14.2133 36.2999 14.2133C36.2999 13.9133 35.8999 13.6133 35.6999 13.4133C35.3999 13.1133 35.0999 12.8133 34.7999 12.6133C34.4999 12.4133 33.6999 12.2133 33.6999 11.7133C33.6999 11.0133 36.9999 12.0133 35.2999 10.6133C34.8999 10.3133 34.5 9.91332 34.1 9.61332C33.6 9.31332 33.1999 9.11332 32.6999 8.91332C32.5999 8.81332 32.3999 8.81331 32.2999 8.71331C32.0999 8.51331 31.9999 8.21332 31.8999 7.91332C31.1999 6.61332 30.7999 5.21331 29.8999 4.01331C29.0999 2.91331 27.9999 2.11332 26.7999 1.41332C25.9999 0.913319 25.0999 1.11332 24.3999 0.613316C23.7999 0.213316 22.3999 -0.48669 21.9999 0.51331C21.6999 1.11331 22.4 1.81332 22.6 2.11332C22.8 2.31332 23 2.61331 23.1 2.81331C23.4 3.41331 23.5999 4.11331 23.8999 4.71331C23.9999 4.91331 24.0999 5.11331 24.2999 5.31331C24.3999 5.41331 24.4999 5.51332 24.4999 5.61332C24.3999 5.81332 24.3999 6.11331 24.2999 6.31331C23.8999 7.41331 24.1 8.81332 24.6 9.61332C24.8 9.91332 25.1 10.4133 25.6 10.2133C26 10.0133 25.9 9.51331 26.1 9.01331C26.1 8.91331 26.0999 8.81331 26.1999 8.81331C26.2999 9.11331 26.5 9.31332 26.6 9.61332C27 10.3133 27.7999 11.0133 28.4999 11.4133C28.4999 11.3133 28.3999 11.3133 28.3999 11.3133C28.1999 11.1133 27.9999 10.9133 27.8999 10.7133C27.4999 10.1133 27.0999 9.51332 26.7999 8.91332C26.5999 8.61332 26.4999 8.31331 26.3999 8.01331C26.2999 7.91331 26.2999 7.71332 26.1999 7.61332C26.0999 7.81332 25.7999 8.01331 25.6999 8.31331C25.4999 8.71331 25.4999 9.21331 25.3999 9.81331C25.0999 9.71331 24.9999 9.41332 24.8999 9.11332C24.5999 8.41332 24.5999 7.31331 24.7999 6.51331C24.8999 6.31331 25.1999 5.61332 24.9999 5.41332C24.8999 5.21332 24.7 5.11331 24.6 5.01331C24.5 4.81331 24.2999 4.61332 24.1999 4.41332C23.9999 3.91332 23.6999 3.21331 23.4999 2.71331C23.3999 2.41331 23.1999 2.21332 22.9999 1.91332C22.7999 1.61332 22.5999 1.51332 22.4999 1.11332C22.3999 1.01332 22.3999 0.813307 22.4999 0.713307C22.4999 0.613307 22.6 0.613316 22.6 0.613316C22.7 0.513316 23.0999 0.613307 23.1999 0.713307C23.5999 0.813307 23.8999 1.01331 24.1999 1.21331C24.7999 1.61331 25.1999 1.51332 25.7999 1.61332C26.2999 1.81332 26.7999 2.01331 27.1999 2.31331C29.1999 3.61331 30.2999 5.71331 31.1999 7.81331C31.3999 8.31331 31.5999 8.71332 31.8999 9.11332C32.0999 9.41332 32.5999 9.41331 32.8999 9.51331C33.6999 9.81331 34.2999 10.2133 34.9999 10.7133C35.0999 10.7133 35.1999 10.8133 35.1999 10.9133Z" fill="url(#paint2_linear_15_176)"/>
<path d="M25.2999 2.51336C25.1999 2.51336 25.0999 2.51336 24.8999 2.51336C25.0999 2.41336 25.3999 3.31337 25.3999 3.41337C25.6999 3.01337 25.5999 2.61336 25.2999 2.51336Z" fill="url(#paint3_linear_15_176)"/>
<defs>
<linearGradient id="paint0_linear_15_176" x1="7.45589" y1="11.4893" x2="8.43509" y2="20.4056" gradientUnits="userSpaceOnUse">
<stop stop-color="#058F92"/>
<stop offset="0.5" stop-color="#038489"/>
<stop offset="1" stop-color="#026D71"/>
</linearGradient>
<linearGradient id="paint1_linear_15_176" x1="26.1261" y1="11.8013" x2="26.7966" y2="19.1197" gradientUnits="userSpaceOnUse">
<stop stop-color="#FF9C0F"/>
<stop offset="0.813" stop-color="#D67E00"/>
</linearGradient>
<linearGradient id="paint2_linear_15_176" x1="470.812" y1="-413.363" x2="490.769" y2="-432.372" gradientUnits="userSpaceOnUse">
<stop stop-color="#058F92"/>
<stop offset="0.5" stop-color="#038489"/>
<stop offset="1" stop-color="#026D71"/>
</linearGradient>
<linearGradient id="paint3_linear_15_176" x1="26.8493" y1="4.32798" x2="33.5019" y2="10.6646" gradientUnits="userSpaceOnUse">
<stop stop-color="#058F92"/>
<stop offset="0.5" stop-color="#038489"/>
<stop offset="1" stop-color="#026D71"/>
</linearGradient>
</defs>
</svg>
