<svg width="28" height="28" viewBox="0 0 28 28" fill="none" xmlns="http://www.w3.org/2000/svg">
<path d="M14 28C21.732 28 28 21.732 28 14C28 6.26801 21.732 0 14 0C6.26801 0 0 6.26801 0 14C0 21.732 6.26801 28 14 28Z" fill="white"/>
<path d="M14 28C21.7 28 28 21.7 28 14C28 6.3 21.7 0 14 0C6.3 0 0 6.3 0 14C0 19.7 3.40001 24.6 8.20001 26.8C8.20001 26.6 8.20001 26.5 8.20001 26.4C8.20001 26.2 8.20001 26.1 8.20001 26C8.20001 25.6 8.5 23.5 8.5 23.5L10.3 16.3C9.99999 15.9 9.79999 14.9 9.79999 14.2C9.79999 10.9 11.6 10.2 12.7 10.2C14.1 10.2 14.4 11.7 14.4 12.9C14.4 13.5 14.1 14.4 13.8 15.4C13.5 16.4 13.1 17.5 13.1 18.2C13.1 19.6 14.5 20.3 15.4 20.3C17.9 20.3 20.2 17.2 20.2 14C20.2 10.8 18.7 7.10001 13.9 7.10001C9.09999 7.10001 6.89999 10.8 6.89999 13.5C6.89999 15.4 7.6 16.8 8 17C8.1 17.1 8.30001 17.4 8.20001 17.8C8.10001 18.2 7.89999 19.1 7.79999 19.4C7.79999 19.5 7.69999 19.6 7.29999 19.5C6.89999 19.4 4.20001 17.7 4.20001 13.5C4.20001 9.3 7.49999 4.39999 13.9 4.39999C20.3 4.39999 23.6 8.7 23.6 14C23.6 19.3 19.3 22.7 16 22.7C13.4 22.7 12.4 21.5 12.2 20.9L11.2 24.7C11 25.3 10.5 26.5 10 27.4C11.4 27.8 12.7 28 14 28Z" fill="#BB0F23"/>
</svg>
