<svg width="32" height="28" viewBox="0 0 32 28" fill="none" xmlns="http://www.w3.org/2000/svg">
<path d="M15.5002 27.4C22.5694 27.4 28.3002 21.6692 28.3002 14.6C28.3002 7.53075 22.5694 1.79999 15.5002 1.79999C8.43095 1.79999 2.7002 7.53075 2.7002 14.6C2.7002 21.6692 8.43095 27.4 15.5002 27.4Z" fill="url(#paint0_linear_2_152)"/>
<path d="M31.8999 0H16.3999V15.5H31.8999V0Z" fill="url(#paint1_linear_2_152)"/>
<path d="M5.5 11C5.5 9.49998 6.7 8.29999 8.2 8.29999H15.5C17 8.29999 18.2 9.49998 18.2 11V22C18.2 23.5 17 24.7 15.5 24.7H5.5V11Z" fill="black" fill-opacity="0.3"/>
<path d="M16.3999 0H0.899902V15.5H16.3999V0Z" fill="#EB6C4D"/>
<path d="M1.8 6.39999H14.6C15.6 6.39999 16.4 7.2 16.4 8.2V21C16.4 22 15.6 22.8 14.6 22.8H1.8C0.800003 22.8 0 22 0 21V8.2C0 7.2 0.800003 6.39999 1.8 6.39999Z" fill="url(#paint2_linear_2_152)"/>
<path d="M11.9 13.2C11.9 11.2 10.6 10 8.5 10H5.5V19.1H7.39999V16.3H8.5C10.4 16.4 11.9 15.3 11.9 13.2ZM10 13.2C10 14.1 9.4 14.7 8.5 14.7H7.39999V11.8H8.5C9.4 11.8 10 12.2 10 13.2Z" fill="white"/>
<defs>
<linearGradient id="paint0_linear_2_152" x1="2.7396" y1="14.609" x2="28.3048" y2="14.609" gradientUnits="userSpaceOnUse">
<stop stop-color="#A73A24"/>
<stop offset="1" stop-color="#F75936"/>
</linearGradient>
<linearGradient id="paint1_linear_2_152" x1="28.7609" y1="7.7608" x2="16.4349" y2="7.7608" gradientUnits="userSpaceOnUse">
<stop stop-color="#FDB8A3"/>
<stop offset="1" stop-color="#F1876D"/>
</linearGradient>
<linearGradient id="paint2_linear_2_152" x1="0" y1="14.6084" x2="16.4348" y2="14.6084" gradientUnits="userSpaceOnUse">
<stop stop-color="#A73A24"/>
<stop offset="1" stop-color="#F75936"/>
</linearGradient>
</defs>
</svg>
