<svg width="29" height="29" viewBox="0 0 29 29" fill="none" xmlns="http://www.w3.org/2000/svg">
<path d="M0 10.2C0 6.7 -3.03984e-06 4.9 0.699997 3.5C1.3 2.3 2.3 1.3 3.5 0.699997C4.9 -3.03984e-06 6.6 0 10.2 0H17.9C21.4 0 23.2 -3.03984e-06 24.6 0.699997C25.8 1.3 26.8 2.3 27.4 3.5C28.1 4.9 28.1 6.6 28.1 10.2V17.9C28.1 21.4 28.1 23.2 27.4 24.6C26.8 25.8 25.8 26.8 24.6 27.4C23.2 28.1 21.5 28.1 17.9 28.1H10.2C6.7 28.1 4.9 28.1 3.5 27.4C2.3 26.8 1.3 25.8 0.699997 24.6C-3.03984e-06 23.2 0 21.5 0 17.9V10.2Z" fill="#00005B"/>
<path d="M6 19.9V7.3C6 7.2 6.00001 7.2 6.10001 7.2C7.30001 7.2 8.5 7.10001 9.7 7.10001C11.7 7.10001 13.8 7.80001 14.5 9.90001C14.7 10.4 14.8 10.9 14.8 11.5C14.8 12.6 14.6 13.4 14.1 14.1C12.8 16 10.5 16 8.5 16V19.9C8.5 20 8.4 20.1 8.3 20.1H6.10001C6.00001 20.1 6 20 6 19.9ZM8.60001 9.50001V13.6C9.40001 13.7 10.2 13.7 11 13.4C11.9 13.1 12.3 12.4 12.3 11.5C12.3 10.7 11.9 10 11.2 9.7C10.4 9.4 9.40001 9.40001 8.60001 9.50001Z" fill="#9999FF"/>
<path d="M16.3998 10.3H18.4998C18.5998 10.3 18.6998 10.4 18.6998 10.5C18.7998 10.8 18.8998 11.3 18.8998 11.6C19.2998 11.2 19.6998 10.8 20.1998 10.5C20.6998 10.2 21.2998 9.99999 21.8998 10.1C21.9998 10.1 22.0998 10.2 22.0998 10.3V12.7C22.0998 12.8 21.9998 12.8 21.8998 12.8C20.9998 12.7 19.6998 13 18.9998 13.7V19.9C18.9998 20 18.9998 20.1 18.7998 20.1H16.5998C16.4998 20.1 16.3998 20 16.3998 19.9V13.2C16.3998 12.3 16.3998 11.4 16.2998 10.5C16.2998 10.4 16.3998 10.3 16.3998 10.3Z" fill="#9999FF"/>
</svg>
